:SAMPLES-PER-SECOND 30
:FULLY-SPECIFIED
:DEGREES
825
root  1.51673 39.5 12.8643 175.193 -5.53111 -173.43
RightUpLeg  1.44434 -1.73071 11.2055
RightLeg  10.2488 -1.76807 0.821806
RightFoot  -7.17882 0.156106 -5.62245
RightToes  -5.8209e-011 0 -3.6325e-017
Spine  -4.7028 -0.724862 3.56065
Spine1  20.9996 -4.2965 10.6252
HEad  -8.06057 5.77366 -4.04123
LeftShoulder1  4.73701 -10.9129 -26.7579
LeftArm  19.1744 -18.028 -40.6339
LeftForeArm  32.279 -25.7464 -3.7903
LeftHand  -0.246645 0.021 5.37786
RightShoulder  6.4816 13.3226 32.5782
RightArm  8.59116 -9.24798 33.798
RightForeArm  10.2709 18.5006 6.25559
RightHand  -0.24729 -0.0210522 -5.37781
LeftUpLeg  -5.39364 3.45719 16.2606
LeftLeg  22.8077 -7.03579 -2.9175
LeftFoot  -12.1319 0.0256192 -6.80545
LeftToes  -7.45818e-011 -3.37383e-011 1.08613e-011
826
root  1.49818 39.4668 12.8984 175.334 -5.71292 -172.884
RightUpLeg  1.23445 -1.40019 11.7775
RightLeg  10.0721 -2.29112 0.801197
RightFoot  -7.05952 0.155312 -5.42315
RightToes  -5.8209e-011 0 -3.6325e-017
Spine  -4.52423 -0.88976 2.77072
Spine1  20.5187 -4.93142 12.0626
HEad  -7.9696 5.89995 -4.07798
LeftShoulder1  4.57645 -10.6302 -26.2627
LeftArm  18.2129 -19.9925 -43.1993
LeftForeArm  33.388 -22.1839 -3.57693
LeftHand  -0.246645 0.021 5.37786
RightShoulder  6.58811 13.4697 32.8706
RightArm  8.34889 -8.55753 32.6951
RightForeArm  11.0286 18.0031 6.5095
RightHand  -0.24729 -0.0210522 -5.37781
LeftUpLeg  -6.10539 3.01993 16.7461
LeftLeg  23.5297 -6.78058 -2.90339
LeftFoot  -12.3828 0.0113713 -6.89841
LeftToes  -7.45818e-011 -3.37383e-011 1.08613e-011
827
root  1.47316 39.4441 12.9356 175.501 -5.82454 -172.43
RightUpLeg  1.00519 -1.15278 12.2139
RightLeg  9.89891 -2.66167 0.833835
RightFoot  -6.92677 0.15953 -5.3458
RightToes  -5.8209e-011 0 -3.6325e-017
Spine  -4.25293 -0.963997 1.91849
Spine1  19.89 -5.45836 13.5565
HEad  -7.74877 6.10401 -4.13051
LeftShoulder1  4.45144 -10.4025 -25.8806
LeftArm  12.7273 -21.8785 -45.4939
LeftForeArm  38.4512 -18.2553 -4.97451
LeftHand  -0.246645 0.021 5.37786
RightShoulder  6.68352 13.6051 33.1196
RightArm  8.31762 -8.10195 31.5088
RightForeArm  10.8248 17.7169 6.69263
RightHand  -0.24729 -0.0210522 -5.37781
LeftUpLeg  -6.73532 2.55059 17.1087
LeftLeg  24.0861 -6.41494 -2.80585
LeftFoot  -12.5524 0.00138366 -6.97147
LeftToes  -7.45818e-011 -3.37383e-011 1.08613e-011
828
root  1.43574 39.4255 12.9703 175.695 -5.80231 -172.1
RightUpLeg  0.698899 -1.0161 12.472
RightLeg  9.90353 -2.78922 0.915806
RightFoot  -6.86485 0.164301 -5.38417
RightToes  -5.8209e-011 0 -3.6325e-017
Spine  -4.0918 -0.935802 1.26991
Spine1  19.3987 -5.76731 14.7349
HEad  -7.56056 6.29493 -4.15329
LeftShoulder1  4.41816 -10.3824 -25.6789
LeftArm  6.33293 -23.7097 -47.1461
LeftForeArm  44.3393 -14.4379 -6.2891
LeftHand  -0.246645 0.021 5.37786
RightShoulder  6.75113 13.6996 33.2965
RightArm  7.95279 -7.7696 30.598
RightForeArm  10.3503 17.4061 6.88075
RightHand  -0.24729 -0.0210522 -5.37781
LeftUpLeg  -7.26372 2.11114 17.3229
LeftLeg  24.5293 -5.9473 -2.6349
LeftFoot  -12.7095 -0.00793748 -7.02927
LeftToes  -7.45818e-011 -3.37383e-011 1.08613e-011
829
root  1.39002 39.4091 13.0006 175.891 -5.62022 -171.847
RightUpLeg  0.380247 -0.892894 12.6485
RightLeg  10.0156 -2.73787 0.98228
RightFoot  -6.84672 0.1665 -5.40925
RightToes  -5.8209e-011 0 -3.6325e-017
Spine  -4.10566 -0.884479 0.993963
Spine1  19.1955 -5.89238 15.334
HEad  -7.50522 6.55383 -4.1368
LeftShoulder1  4.43091 -10.4804 -25.5409
LeftArm  2.23611 -25.3983 -48.1509
LeftForeArm  48.4124 -11.3943 -6.78636
LeftHand  -0.246645 0.021 5.37786
RightShoulder  6.80203 13.7576 33.4583
RightArm  7.02197 -7.29731 30.0894
RightForeArm  10.4942 16.84 7.15956
RightHand  -0.24729 -0.0210522 -5.37781
LeftUpLeg  -7.67979 1.75579 17.4616
LeftLeg  24.9168 -5.41655 -2.41674
LeftFoot  -12.8687 -0.0176218 -7.09308
LeftToes  -7.45818e-011 -3.37383e-011 1.08613e-011
830
root  1.3429 39.3977 13.0295 176.059 -5.35588 -171.613
RightUpLeg  0.138272 -0.718223 12.8354
RightLeg  10.0668 -2.65202 0.999558
RightFoot  -6.80416 0.167409 -5.36285
RightToes  -5.8209e-011 0 -3.6325e-017
Spine  -4.13931 -0.895819 0.929283
Spine1  19.1112 -5.98681 15.5652
HEad  -7.5523 6.98562 -4.16274
LeftShoulder1  4.42103 -10.5242 -25.3638
LeftArm  0.26684 -26.7871 -48.7984
LeftForeArm  50.7236 -9.15229 -6.8211
LeftHand  -0.246645 0.021 5.37786
RightShoulder  6.86029 13.8198 33.6514
RightArm  6.15011 -6.65071 29.8267
RightForeArm  11.4556 16.1836 7.46118
RightHand  -0.24729 -0.0210522 -5.37781
LeftUpLeg  -7.99092 1.5067 17.5991
LeftLeg  25.2371 -4.91916 -2.19957
LeftFoot  -12.9937 -0.0259321 -7.18374
LeftToes  -7.45818e-011 -3.37383e-011 1.08613e-011
831
root  1.29766 39.3922 13.057 176.191 -5.12292 -171.406
RightUpLeg  -0.0177389 -0.540677 13.0102
RightLeg  10.0272 -2.60026 0.988301
RightFoot  -6.73218 0.168204 -5.29914
RightToes  -5.8209e-011 0 -3.6325e-017
Spine  -4.06351 -0.978517 0.778
Spine1  18.9482 -6.15713 15.8289
HEad  -7.64931 7.50058 -4.28812
LeftShoulder1  4.40289 -10.5299 -25.2155
LeftArm  -0.692031 -27.7532 -49.2841
LeftForeArm  51.8124 -7.48801 -6.60557
LeftHand  -0.246645 0.021 5.37786
RightShoulder  6.93152 13.9098 33.8537
RightArm  5.99705 -6.00884 29.6127
RightForeArm  12.8689 15.7329 7.67975
RightHand  -0.24729 -0.0210522 -5.37781
LeftUpLeg  -8.2084 1.39522 17.73
LeftLeg  25.4426 -4.59541 -2.05399
LeftFoot  -13.0792 -0.0321915 -7.27333
LeftToes  -7.45818e-011 -3.37383e-011 1.08613e-011
832
root  1.25577 39.3907 13.0792 176.309 -4.93414 -171.278
RightUpLeg  -0.142359 -0.406374 13.1133
RightLeg  9.98128 -2.54144 0.959825
RightFoot  -6.66793 0.169344 -5.24834
RightToes  -5.8209e-011 0 -3.6325e-017
Spine  -3.94494 -1.0732 0.457583
Spine1  18.756 -6.36137 16.2052
HEad  -7.77373 7.918 -4.42447
LeftShoulder1  4.42622 -10.6205 -25.1773
LeftArm  -1.32613 -28.3053 -49.541
LeftForeArm  52.1257 -6.42034 -6.25596
LeftHand  -0.246645 0.021 5.37786
RightShoulder  7.00454 14.0078 34.0455
RightArm  6.50396 -5.45418 29.3656
RightForeArm  14.2235 15.5186 7.82236
RightHand  -0.24729 -0.0210522 -5.37781
LeftUpLeg  -8.34477 1.47897 17.809
LeftLeg  25.5297 -4.50365 -2.01486
LeftFoot  -13.1471 -0.0362886 -7.29751
LeftToes  -7.45818e-011 -3.37383e-011 1.08613e-011
833
root  1.21794 39.3925 13.0955 176.448 -4.71422 -171.238
RightUpLeg  -0.289605 -0.292652 13.1392
RightLeg  9.98177 -2.41669 0.909258
RightFoot  -6.62528 0.168891 -5.18222
RightToes  -5.8209e-011 0 -3.6325e-017
Spine  -3.89569 -1.13718 0.0930568
Spine1  18.6589 -6.50987 16.5009
HEad  -7.87858 8.21247 -4.44227
LeftShoulder1  4.47038 -10.7639 -25.1711
LeftArm  -1.93853 -28.5586 -49.5646
LeftForeArm  52.271 -5.95068 -5.95765
LeftHand  -0.246645 0.021 5.37786
RightShoulder  7.07749 14.0965 34.2554
RightArm  7.31889 -4.95112 29.0807
RightForeArm  14.998 15.4361 7.94087
RightHand  -0.24729 -0.0210522 -5.37781
LeftUpLeg  -8.42668 1.75919 17.8222
LeftLeg  25.5366 -4.55064 -2.03982
LeftFoot  -13.1926 -0.0378424 -7.25286
LeftToes  -7.45818e-011 -3.37383e-011 1.08613e-011
